<svg width="1416" height="230" viewBox="0 0 1416 230" fill="none" xmlns="http://www.w3.org/2000/svg">
<path fill-rule="evenodd" clip-rule="evenodd" d="M147 0H73.5L0 227.5H73.5L147 0ZM177.5 0H251L230.32 64.0085C225.009 65.2451 219.916 67.2222 215.04 69.9398C206.24 74.9264 199.2 82.1131 193.92 91.4998C188.64 100.74 186 111.813 186 124.72C186 137.626 188.64 148.773 193.92 158.16C195.156 160.322 196.487 162.372 197.916 164.309L177.5 227.5H104L177.5 0ZM197.916 164.309C202.591 170.651 208.299 175.788 215.04 179.72C223.987 184.706 233.667 187.2 244.08 187.2C255.227 187.2 264.1 185 270.7 180.6C273.06 179.061 275.187 177.225 277.08 175.094V185H373.017L383.333 158.16H441.901L452.217 185H501.643V227.68H551.363V176.87C552.799 178.248 554.339 179.491 555.983 180.6C562.877 185 571.53 187.2 581.943 187.2C592.503 187.2 602.183 184.706 610.983 179.72C619.783 174.733 626.823 167.62 632.103 158.38C637.383 148.993 640.023 137.846 640.023 124.94C640.023 112.033 637.383 100.96 632.103 91.7198C626.823 82.3331 619.783 75.1464 610.983 70.1598C602.183 65.0264 592.503 62.4598 581.943 62.4598C570.943 62.4598 562.07 64.6598 555.323 69.0598C552.974 70.5916 550.848 72.4168 548.943 74.5354V64.6598H501.643V175.269L438.577 30.9998H387.537L324.38 175.477V21.7598H274.66V72.9288C273.225 71.5687 271.685 70.3523 270.04 69.2798C263.293 64.7331 254.64 62.4598 244.08 62.4598C239.342 62.4598 234.755 62.976 230.32 64.0085L197.916 164.309ZM427.526 120.76L412.617 81.9697L397.708 120.76H427.526ZM265.86 145.84C262.927 147.6 259.627 148.48 255.96 148.48C252.293 148.48 248.993 147.6 246.06 145.84C243.127 144.08 240.78 141.44 239.02 137.92C237.26 134.253 236.38 129.853 236.38 124.72C236.38 119.44 237.26 115.113 239.02 111.74C240.78 108.22 243.127 105.58 246.06 103.82C248.993 102.06 252.293 101.18 255.96 101.18C259.627 101.18 262.927 102.06 265.86 103.82C268.793 105.58 271.14 108.22 272.9 111.74C274.66 115.113 275.54 119.44 275.54 124.72C275.54 129.853 274.66 134.253 272.9 137.92C271.14 141.44 268.793 144.08 265.86 145.84ZM570.063 148.48C573.73 148.48 577.03 147.6 579.963 145.84C582.897 144.08 585.243 141.44 587.003 137.92C588.763 134.4 589.643 130.073 589.643 124.94C589.643 119.66 588.763 115.26 587.003 111.74C585.243 108.22 582.897 105.58 579.963 103.82C577.03 102.06 573.73 101.18 570.063 101.18C566.397 101.18 563.097 102.06 560.163 103.82C557.23 105.58 554.883 108.22 553.123 111.74C551.363 115.26 550.483 119.66 550.483 124.94C550.483 130.073 551.363 134.4 553.123 137.92C554.883 141.44 557.23 144.08 560.163 145.84C563.097 147.6 566.397 148.48 570.063 148.48ZM699.026 180.6C705.92 185 714.573 187.2 724.986 187.2C735.546 187.2 745.226 184.706 754.026 179.72C762.826 174.733 769.866 167.62 775.146 158.38C780.426 148.993 783.066 137.846 783.066 124.94C783.066 112.033 780.426 100.96 775.146 91.7198C769.866 82.3331 762.826 75.1464 754.026 70.1598C745.226 65.0264 735.546 62.4598 724.986 62.4598C713.986 62.4598 705.113 64.6598 698.366 69.0598C696.017 70.5917 693.891 72.4169 691.986 74.5354V64.6598H644.686V227.68H694.406V176.87C695.842 178.248 697.382 179.491 699.026 180.6ZM723.006 145.84C720.073 147.6 716.773 148.48 713.106 148.48C709.44 148.48 706.14 147.6 703.206 145.84C700.273 144.08 697.926 141.44 696.166 137.92C694.406 134.4 693.526 130.073 693.526 124.94C693.526 119.66 694.406 115.26 696.166 111.74C697.926 108.22 700.273 105.58 703.206 103.82C706.14 102.06 709.44 101.18 713.106 101.18C716.773 101.18 720.073 102.06 723.006 103.82C725.94 105.58 728.286 108.22 730.046 111.74C731.806 115.26 732.686 119.66 732.686 124.94C732.686 130.073 731.806 134.4 730.046 137.92C728.286 141.44 725.94 144.08 723.006 145.84ZM841.189 185V135.72H905.429V96.5598H841.189V70.1598H914.449V30.9998H789.269V185H841.189ZM943.443 179.28C954.003 184.56 966.103 187.2 979.743 187.2C993.383 187.2 1005.48 184.56 1016.04 179.28C1026.6 173.853 1034.82 166.446 1040.68 157.06C1046.7 147.673 1049.7 136.893 1049.7 124.72C1049.7 112.546 1046.7 101.766 1040.68 92.3798C1034.82 82.9931 1026.6 75.6598 1016.04 70.3798C1005.48 65.0998 993.383 62.4598 979.743 62.4598C966.103 62.4598 954.003 65.0998 943.443 70.3798C933.029 75.6598 924.816 82.9931 918.803 92.3798C912.789 101.766 909.783 112.546 909.783 124.72C909.783 136.893 912.789 147.673 918.803 157.06C924.816 166.446 933.029 173.853 943.443 179.28ZM989.643 145.84C986.709 147.6 983.409 148.48 979.743 148.48C976.076 148.48 972.776 147.6 969.843 145.84C966.909 144.08 964.563 141.44 962.803 137.92C961.043 134.253 960.163 129.853 960.163 124.72C960.163 119.44 961.043 115.113 962.803 111.74C964.563 108.22 966.909 105.58 969.843 103.82C972.776 102.06 976.076 101.18 979.743 101.18C983.409 101.18 986.709 102.06 989.643 103.82C992.576 105.58 994.923 108.22 996.683 111.74C998.443 115.113 999.323 119.44 999.323 124.72C999.323 129.853 998.443 134.253 996.683 137.92C994.923 141.44 992.576 144.08 989.643 145.84ZM1054.26 185V64.6598H1101.56V77.6539C1104.38 74.4195 1107.68 71.7014 1111.46 69.4998C1119.53 64.8064 1129.21 62.4598 1140.5 62.4598V96.8232C1141.57 94.2729 1142.83 91.8384 1144.28 89.5198C1149.71 80.8664 1156.82 74.1931 1165.62 69.4998C1174.42 64.8064 1183.88 62.4598 1194 62.4598C1204.42 62.4598 1212.92 64.5131 1219.52 68.6198C1223.51 71.0475 1226.88 74.2697 1229.64 78.2864V64.6598H1276.94V161.02C1276.94 184.34 1270.49 201.646 1257.58 212.94C1244.68 224.233 1226.71 229.88 1203.68 229.88C1191.8 229.88 1180.66 228.633 1170.24 226.14C1159.83 223.646 1150.88 219.906 1143.4 214.92L1160.12 181.04C1164.82 184.706 1170.76 187.566 1177.94 189.62C1185.28 191.82 1192.17 192.92 1198.62 192.92C1208.89 192.92 1216.22 190.72 1220.62 186.32C1225.02 182.066 1227.22 175.906 1227.22 167.84V165.605C1224.98 168.206 1222.41 170.418 1219.52 172.24C1212.92 176.346 1204.42 178.4 1194 178.4C1183.88 178.4 1174.42 176.053 1165.62 171.36C1156.82 166.52 1149.71 159.773 1144.28 151.12C1138.86 142.466 1136.14 132.2 1136.14 120.32C1136.14 115.291 1136.63 110.551 1137.6 106.101C1136.52 105.979 1135.51 105.879 1134.56 105.8C1132.95 105.653 1131.26 105.58 1129.5 105.58C1122.02 105.58 1115.86 107.56 1111.02 111.52C1106.33 115.333 1103.98 122.006 1103.98 131.54V185H1054.26ZM1217.76 137.26C1214.68 138.873 1211.16 139.68 1207.2 139.68C1203.39 139.68 1199.87 138.873 1196.64 137.26C1193.56 135.646 1191.07 133.373 1189.16 130.44C1187.4 127.506 1186.52 124.133 1186.52 120.32C1186.52 116.36 1187.4 112.986 1189.16 110.2C1191.07 107.266 1193.56 105.066 1196.64 103.6C1199.87 101.986 1203.39 101.18 1207.2 101.18C1211.16 101.18 1214.68 101.986 1217.76 103.6C1220.84 105.066 1223.26 107.266 1225.02 110.2C1226.78 112.986 1227.66 116.36 1227.66 120.32C1227.66 124.133 1226.78 127.506 1225.02 130.44C1223.26 133.373 1220.84 135.646 1217.76 137.26ZM1354.37 187.2C1339.7 187.2 1326.87 184.486 1315.87 179.06C1305.02 173.633 1296.58 166.226 1290.57 156.84C1284.56 147.306 1281.55 136.6 1281.55 124.72C1281.55 112.546 1284.48 101.766 1290.35 92.3798C1296.36 82.9931 1304.5 75.6598 1314.77 70.3798C1325.18 65.0998 1336.84 62.4598 1349.75 62.4598C1361.63 62.4598 1372.56 64.8064 1382.53 69.4998C1392.65 74.1931 1400.72 81.1598 1406.73 90.3998C1412.89 99.6398 1415.97 111.08 1415.97 124.72C1415.97 126.48 1415.9 128.46 1415.75 130.66C1415.6 132.713 1415.46 134.62 1415.31 136.38H1331.83C1332.23 137.458 1332.7 138.485 1333.25 139.46C1335.3 143.126 1338.24 145.913 1342.05 147.82C1345.86 149.58 1350.48 150.46 1355.91 150.46C1361.48 150.46 1366.03 149.726 1369.55 148.26C1373.22 146.793 1377.03 144.593 1380.99 141.66L1406.95 167.84C1401.08 174.146 1393.82 178.986 1385.17 182.36C1376.66 185.586 1366.4 187.2 1354.37 187.2ZM1332.59 106.9C1331.77 108.543 1331.15 110.376 1330.75 112.4H1369.57C1369.13 110.376 1368.46 108.543 1367.57 106.9C1365.96 103.526 1363.68 100.96 1360.75 99.1998C1357.82 97.2931 1354.3 96.3398 1350.19 96.3398C1346.08 96.3398 1342.49 97.2931 1339.41 99.1998C1336.48 100.96 1334.2 103.526 1332.59 106.9Z" fill="#E8DCB9"/>
</svg>
